<?xml version="1.0" encoding="iso-8859-1"?>
<!-- Generator: Adobe Illustrator 19.0.0, SVG Export Plug-In . SVG Version: 6.00 Build 0)  -->
<svg version="1.1" id="Capa_1" xmlns="http://www.w3.org/2000/svg" xmlns:xlink="http://www.w3.org/1999/xlink" x="0px" y="0px"
	 viewBox="0 0 512.001 512.001" style="enable-background:new 0 0 512.001 512.001;" xml:space="preserve">
<path style="fill:#D85C67;" d="M470.759,98.751l-87.299-87.299c-15.269-15.269-40.025-15.269-55.294,0L195.241,144.379
	l25.473,114.946l117.118,27.647l132.927-132.928C486.028,138.775,486.028,114.019,470.759,98.751z"/>
<path style="fill:#BD364B;" d="M500.549,128.54l-29.79-29.79L310.185,259.325l4.919,50.374l52.518,7.063l132.927-132.927
	C515.818,168.565,515.818,143.809,500.549,128.54z"/>
<path style="fill:#50C4DF;" d="M11.452,328.168c-15.269,15.269-15.269,40.025,0,55.294l87.299,87.299
	c15.269,15.269,40.025,15.268,55.293,0l183.787-183.787l-142.59-142.594L11.452,328.168z"/>
<path style="fill:#1AA5C4;" d="M310.185,259.325L98.751,470.759l29.79,29.79c15.269,15.269,40.025,15.268,55.294,0l183.787-183.788
	L310.185,259.325z"/>
<g>
	<path style="fill:#3A484A;" d="M309.726,108.336c2.912,2.912,7.919,3.008,10.926,0l5.812-5.813c3.017-3.017,3.017-7.91,0-10.926
		c-3.017-3.017-7.91-3.017-10.926,0l-5.812,5.813C306.708,100.427,306.708,105.319,309.726,108.336z"/>
	<path style="fill:#3A484A;" d="M379.423,174.833c1.977,0,3.955-0.754,5.463-2.263l5.813-5.812c3.017-3.017,3.017-7.91,0-10.927
		c-3.017-3.017-7.91-3.017-10.926,0l-5.813,5.813c-3.017,3.017-3.017,7.909,0,10.926
		C375.468,174.079,377.446,174.833,379.423,174.833z"/>
	<path style="fill:#3A484A;" d="M354.7,150.269c4.716,0.008,8.987-3.174,8.645-8.274c-0.285-4.258-3.967-7.478-8.226-7.191
		c-1.951,0.133-3.94-0.662-5.453-2.174c-1.513-1.513-2.306-3.501-2.175-5.453c0.286-4.258-2.933-7.941-7.191-8.227
		c-4.259-0.284-7.941,2.933-8.227,7.191c-0.431,6.402,1.999,12.748,6.665,17.416C342.941,147.757,348.761,150.259,354.7,150.269z"/>
</g>
<g>
</g>
<g>
</g>
<g>
</g>
<g>
</g>
<g>
</g>
<g>
</g>
<g>
</g>
<g>
</g>
<g>
</g>
<g>
</g>
<g>
</g>
<g>
</g>
<g>
</g>
<g>
</g>
<g>
</g>
</svg>
